<svg width="177" height="25" viewBox="0 0 177 25" fill="none" xmlns="http://www.w3.org/2000/svg">
<path d="M17.5938 12.6719V21C17.3125 21.4167 16.8646 21.8854 16.25 22.4062C15.6354 22.9167 14.7865 23.3646 13.7031 23.75C12.6302 24.125 11.2448 24.3125 9.54688 24.3125C8.16146 24.3125 6.88542 24.0729 5.71875 23.5938C4.5625 23.1042 3.55729 22.3958 2.70312 21.4688C1.85938 20.5312 1.20312 19.3958 0.734375 18.0625C0.276042 16.7188 0.046875 15.1979 0.046875 13.5V11.7344C0.046875 10.0365 0.244792 8.52083 0.640625 7.1875C1.04688 5.85417 1.64062 4.72396 2.42188 3.79688C3.20312 2.85938 4.16146 2.15104 5.29688 1.67188C6.43229 1.18229 7.73438 0.9375 9.20312 0.9375C10.9427 0.9375 12.3958 1.23958 13.5625 1.84375C14.7396 2.4375 15.6562 3.26042 16.3125 4.3125C16.9792 5.36458 17.4062 6.5625 17.5938 7.90625H14.5781C14.4427 7.08333 14.1719 6.33333 13.7656 5.65625C13.3698 4.97917 12.8021 4.4375 12.0625 4.03125C11.3229 3.61458 10.3698 3.40625 9.20312 3.40625C8.15104 3.40625 7.23958 3.59896 6.46875 3.98438C5.69792 4.36979 5.0625 4.92188 4.5625 5.64062C4.0625 6.35938 3.6875 7.22917 3.4375 8.25C3.19792 9.27083 3.07812 10.4219 3.07812 11.7031V13.5C3.07812 14.8125 3.22917 15.9844 3.53125 17.0156C3.84375 18.0469 4.28646 18.9271 4.85938 19.6562C5.43229 20.375 6.11458 20.9219 6.90625 21.2969C7.70833 21.6719 8.59375 21.8594 9.5625 21.8594C10.6354 21.8594 11.5052 21.7708 12.1719 21.5938C12.8385 21.4062 13.3594 21.1875 13.7344 20.9375C14.1094 20.6771 14.3958 20.4323 14.5938 20.2031V15.1094H9.32812V12.6719H17.5938ZM23.6406 1.25L29.5469 12.6719L35.4688 1.25H38.8906L31.0469 15.5V24H28.0312V15.5L20.1875 1.25H23.6406ZM42.7656 1.25H45.6875L53.1406 19.7969L60.5781 1.25H63.5156L54.2656 24H51.9844L42.7656 1.25ZM41.8125 1.25H44.3906L44.8125 15.125V24H41.8125V1.25ZM61.875 1.25H64.4531V24H61.4531V15.125L61.875 1.25ZM94.5 12.6719V21C94.2188 21.4167 93.7708 21.8854 93.1562 22.4062C92.5417 22.9167 91.6927 23.3646 90.6094 23.75C89.5365 24.125 88.151 24.3125 86.4531 24.3125C85.0677 24.3125 83.7917 24.0729 82.625 23.5938C81.4688 23.1042 80.4635 22.3958 79.6094 21.4688C78.7656 20.5312 78.1094 19.3958 77.6406 18.0625C77.1823 16.7188 76.9531 15.1979 76.9531 13.5V11.7344C76.9531 10.0365 77.151 8.52083 77.5469 7.1875C77.9531 5.85417 78.5469 4.72396 79.3281 3.79688C80.1094 2.85938 81.0677 2.15104 82.2031 1.67188C83.3385 1.18229 84.6406 0.9375 86.1094 0.9375C87.849 0.9375 89.3021 1.23958 90.4688 1.84375C91.6458 2.4375 92.5625 3.26042 93.2188 4.3125C93.8854 5.36458 94.3125 6.5625 94.5 7.90625H91.4844C91.349 7.08333 91.0781 6.33333 90.6719 5.65625C90.276 4.97917 89.7083 4.4375 88.9688 4.03125C88.2292 3.61458 87.276 3.40625 86.1094 3.40625C85.0573 3.40625 84.1458 3.59896 83.375 3.98438C82.6042 4.36979 81.9688 4.92188 81.4688 5.64062C80.9688 6.35938 80.5938 7.22917 80.3438 8.25C80.1042 9.27083 79.9844 10.4219 79.9844 11.7031V13.5C79.9844 14.8125 80.1354 15.9844 80.4375 17.0156C80.75 18.0469 81.1927 18.9271 81.7656 19.6562C82.3385 20.375 83.0208 20.9219 83.8125 21.2969C84.6146 21.6719 85.5 21.8594 86.4688 21.8594C87.5417 21.8594 88.4115 21.7708 89.0781 21.5938C89.7448 21.4062 90.2656 21.1875 90.6406 20.9375C91.0156 20.6771 91.3021 20.4323 91.5 20.2031V15.1094H86.2344V12.6719H94.5ZM112.516 1.25H115.516V16.6406C115.516 18.349 115.135 19.7708 114.375 20.9062C113.615 22.0417 112.604 22.8958 111.344 23.4688C110.094 24.0312 108.734 24.3125 107.266 24.3125C105.724 24.3125 104.328 24.0312 103.078 23.4688C101.839 22.8958 100.854 22.0417 100.125 20.9062C99.4062 19.7708 99.0469 18.349 99.0469 16.6406V1.25H102.031V16.6406C102.031 17.8281 102.25 18.8073 102.688 19.5781C103.125 20.349 103.734 20.9219 104.516 21.2969C105.307 21.6719 106.224 21.8594 107.266 21.8594C108.318 21.8594 109.234 21.6719 110.016 21.2969C110.807 20.9219 111.422 20.349 111.859 19.5781C112.297 18.8073 112.516 17.8281 112.516 16.6406V1.25ZM128.328 3.26562L120.797 24H117.719L126.391 1.25H128.375L128.328 3.26562ZM134.641 24L127.094 3.26562L127.047 1.25H129.031L137.734 24H134.641ZM134.25 15.5781V18.0469H121.469V15.5781H134.25ZM140.781 1.25H148.312C150.021 1.25 151.464 1.51042 152.641 2.03125C153.828 2.55208 154.729 3.32292 155.344 4.34375C155.969 5.35417 156.281 6.59896 156.281 8.07812C156.281 9.11979 156.068 10.0729 155.641 10.9375C155.224 11.7917 154.62 12.5208 153.828 13.125C153.047 13.7188 152.109 14.1615 151.016 14.4531L150.172 14.7812H143.094L143.062 12.3281H148.406C149.49 12.3281 150.391 12.1406 151.109 11.7656C151.828 11.3802 152.37 10.8646 152.734 10.2188C153.099 9.57292 153.281 8.85938 153.281 8.07812C153.281 7.20312 153.109 6.4375 152.766 5.78125C152.422 5.125 151.88 4.61979 151.141 4.26562C150.411 3.90104 149.469 3.71875 148.312 3.71875H143.797V24H140.781V1.25ZM154.078 24L148.547 13.6875L151.688 13.6719L157.297 23.8125V24H154.078ZM166.656 24H161.906L161.938 21.5469H166.656C168.281 21.5469 169.635 21.2083 170.719 20.5312C171.802 19.8438 172.615 18.8854 173.156 17.6562C173.708 16.4167 173.984 14.9688 173.984 13.3125V11.9219C173.984 10.6198 173.828 9.46354 173.516 8.45312C173.203 7.43229 172.745 6.57292 172.141 5.875C171.536 5.16667 170.797 4.63021 169.922 4.26562C169.057 3.90104 168.062 3.71875 166.938 3.71875H161.812V1.25H166.938C168.427 1.25 169.786 1.5 171.016 2C172.245 2.48958 173.302 3.20312 174.188 4.14062C175.083 5.06771 175.771 6.19271 176.25 7.51562C176.729 8.82812 176.969 10.3073 176.969 11.9531V13.3125C176.969 14.9583 176.729 16.4427 176.25 17.7656C175.771 19.0781 175.078 20.1979 174.172 21.125C173.276 22.0521 172.193 22.7656 170.922 23.2656C169.661 23.7552 168.24 24 166.656 24ZM163.516 1.25V24H160.5V1.25H163.516Z" fill="white"/>
</svg>
